<?xml version="1.0" encoding="utf-8"?>
<!-- Generator: Adobe Illustrator 26.0.3, SVG Export Plug-In . SVG Version: 6.00 Build 0)  -->
<svg version="1.1" id="Layer_1" xmlns="http://www.w3.org/2000/svg" xmlns:xlink="http://www.w3.org/1999/xlink" x="0px" y="0px"
	 viewBox="0 0 250.62 298.77" style="enable-background:new 0 0 250.62 298.77;" xml:space="preserve">
<style type="text/css">
	.st0{fill:#FFFFFF;}
	.st1{fill:#0B406A;}
	.st2{fill:#D2202E;}
</style>
<g>
	<g>
		<path class="st0" d="M18.04,15.63c-0.15,57.38-0.3,114.77-0.45,172.15c6.07,13.95,18.92,38.49,44.26,60.84
			c23.58,20.79,47.53,30.48,61.74,35.03c13.72-4.39,31.62-11.82,50.18-24.75c32.08-22.36,49.77-49.73,58.51-65.94
			c0.38-58.06,0.75-116.12,1.13-174.18C161.62,17.73,89.83,16.68,18.04,15.63z"/>
	</g>
	<g>
		<path class="st1" d="M37.38,52.14h-5.69c-0.86,0-1.55-0.23-2.08-0.68c-0.52-0.45-0.79-1.11-0.79-1.97v-9.66h2.41v9.66
			c0,0.37,0.27,0.55,0.8,0.55h5.34V52.14z"/>
		<path class="st1" d="M50.67,52.14h-2.6l-1.14-2.93h-5.08l-1.15,2.93h-2.6l4.66-11.39c0.28-0.66,0.84-1,1.67-1
			c0.76,0,1.3,0.35,1.6,1.06L50.67,52.14z M46.18,47.21l-1.67-4.5c-0.04-0.1-0.07-0.15-0.11-0.15s-0.07,0.05-0.12,0.15l-1.67,4.5
			H46.18z"/>
		<path class="st1" d="M63.41,52.14h-2.6l-1.14-2.93H54.6l-1.15,2.93h-2.6l4.66-11.39c0.28-0.66,0.84-1,1.67-1
			c0.76,0,1.3,0.35,1.6,1.06L63.41,52.14z M58.92,47.21l-1.67-4.5c-0.04-0.1-0.07-0.15-0.11-0.15s-0.07,0.05-0.12,0.15l-1.67,4.5
			H58.92z"/>
		<path class="st1" d="M81.7,52.14h-2.41v-7.76l-2.6,4.35c-0.37,0.72-0.85,1.08-1.44,1.08h-0.67c-0.59,0-1.07-0.36-1.45-1.08
			l-2.59-4.35v7.76h-2.41V39.83h2.38l4.29,7.85c0.04,0.07,0.09,0.11,0.16,0.11s0.11-0.04,0.16-0.11l4.2-7.85h2.38V52.14z"/>
		<path class="st1" d="M95.42,52.14h-2.59l-1.14-2.93h-5.08l-1.15,2.93h-2.59l4.66-11.39c0.28-0.66,0.84-1,1.67-1
			c0.76,0,1.3,0.35,1.6,1.06L95.42,52.14z M90.93,47.21l-1.67-4.5c-0.04-0.1-0.07-0.15-0.11-0.15c-0.04,0-0.07,0.05-0.12,0.15
			l-1.67,4.5H90.93z"/>
		<path class="st1" d="M100.7,52.22c-1.45,0-2.93-0.14-4.44-0.43v-2.08c1.67,0.28,3.15,0.42,4.44,0.42c1.83,0,2.74-0.5,2.74-1.5
			c0-0.3-0.2-0.57-0.6-0.8c-0.4-0.23-1.26-0.53-2.56-0.89s-2.32-0.82-3.04-1.37c-0.72-0.55-1.08-1.32-1.08-2.31
			c0-1.04,0.42-1.89,1.28-2.53s2.08-0.97,3.7-0.97c1.16,0,2.49,0.14,4,0.43v2.07c-1.67-0.27-3-0.41-4.01-0.41
			c-0.96,0-1.63,0.13-2,0.38c-0.37,0.25-0.56,0.6-0.56,1.02c0,0.31,0.19,0.6,0.57,0.85c0.38,0.25,1.23,0.57,2.56,0.93
			c1.33,0.37,2.36,0.81,3.08,1.33s1.08,1.28,1.08,2.27c0,1.04-0.44,1.9-1.32,2.58C103.66,51.88,102.38,52.22,100.7,52.22z"/>
		<path class="st1" d="M109.82,52.14h-2.41V39.83h2.41V52.14z"/>
		<path class="st1" d="M123.53,52.14h-2.59l-1.14-2.93h-5.08l-1.15,2.93h-2.59l4.66-11.39c0.28-0.66,0.84-1,1.67-1
			c0.76,0,1.3,0.35,1.6,1.06L123.53,52.14z M119.04,47.21l-1.67-4.5c-0.04-0.1-0.07-0.15-0.11-0.15c-0.04,0-0.07,0.05-0.12,0.15
			l-1.67,4.5H119.04z"/>
		<path class="st1" d="M134.36,52.14h-2.41V39.83h8.55v2.1h-6.14v3h5.88v2.1h-5.88V52.14z"/>
		<path class="st1" d="M148.26,52.23c-2.04,0-3.66-0.57-4.86-1.71s-1.79-2.66-1.79-4.58c0-1.92,0.6-3.43,1.8-4.54
			c1.2-1.1,2.84-1.66,4.94-1.66c1.16,0,2.41,0.15,3.73,0.44v2.18c-1.49-0.35-2.74-0.52-3.74-0.52c-1.35,0-2.41,0.35-3.17,1.06
			c-0.76,0.71-1.15,1.72-1.15,3.04c0,1.33,0.38,2.37,1.15,3.1s1.79,1.1,3.08,1.1c1.06,0,2.34-0.17,3.83-0.52v2.14
			C150.76,52.07,149.49,52.23,148.26,52.23z"/>
		<path class="st1" d="M167.44,52.14h-2.96l-4.23-5.1h-0.55v5.1h-2.41V39.83h2.41v5.14h0.55l4.05-5.14h2.95l-4.92,6.14L167.44,52.14
			z"/>
		<path class="st1" d="M177.03,52.14h-5.69c-0.86,0-1.55-0.23-2.08-0.68c-0.52-0.45-0.79-1.11-0.79-1.97v-9.66h8.55v2.1h-6.14v3
			h5.88v2.1h-5.88v2.46c0,0.37,0.27,0.55,0.8,0.55h5.34V52.14z"/>
		<path class="st1" d="M188.95,52.14h-2.91l-2.9-4.52h-2.14v4.52h-2.41V39.83h4.44c1.44,0,2.58,0.34,3.43,1.01
			c0.84,0.68,1.27,1.65,1.27,2.92c0,1.65-0.7,2.76-2.11,3.32L188.95,52.14z M183.02,45.52c0.78,0,1.35-0.14,1.73-0.43
			c0.38-0.28,0.56-0.73,0.56-1.33c0-0.61-0.16-1.07-0.48-1.37s-0.93-0.46-1.81-0.46h-2.02v3.59H183.02z"/>
		<path class="st1" d="M201.5,52.14h-2.59l-1.14-2.93h-5.08l-1.15,2.93h-2.59l4.66-11.39c0.28-0.66,0.84-1,1.67-1
			c0.76,0,1.3,0.35,1.6,1.06L201.5,52.14z M197.01,47.21l-1.67-4.5c-0.04-0.1-0.07-0.15-0.11-0.15c-0.04,0-0.07,0.05-0.12,0.15
			l-1.67,4.5H197.01z"/>
		<path class="st1" d="M211.07,52.14h-5.69c-0.86,0-1.55-0.23-2.08-0.68c-0.52-0.45-0.79-1.11-0.79-1.97v-9.66h2.41v9.66
			c0,0.37,0.27,0.55,0.8,0.55h5.34V52.14z"/>
		<path class="st1" d="M224.35,52.14h-2.59l-1.14-2.93h-5.08l-1.15,2.93h-2.59l4.66-11.39c0.28-0.66,0.84-1,1.67-1
			c0.76,0,1.3,0.35,1.6,1.06L224.35,52.14z M219.87,47.21l-1.67-4.5c-0.04-0.1-0.07-0.15-0.11-0.15c-0.04,0-0.07,0.05-0.12,0.15
			l-1.67,4.5H219.87z"/>
	</g>
	<g>
		<g>
			<polygon class="st1" points="202.65,107.06 206.78,119.77 220.14,119.77 209.33,127.63 213.46,140.34 202.65,132.48 
				191.84,140.34 195.97,127.63 185.15,119.77 198.52,119.77 			"/>
		</g>
	</g>
	<g>
		<g>
			<polygon class="st1" points="50.1,107.06 54.23,119.77 67.59,119.77 56.78,127.63 60.91,140.34 50.1,132.48 39.29,140.34 
				43.42,127.63 32.6,119.77 45.97,119.77 			"/>
		</g>
	</g>
	<g>
		<path class="st2" d="M35.42,73.98c12.22,0,24.44,0,36.66,0c0,27.13,0,54.27,0,81.4c7.42-4.75,14.83-9.5,22.25-14.25
			c-0.11-22.38-0.23-44.76-0.34-67.15c7.12,0,14.24,0,21.36,0c-0.06,19.73-0.11,39.47-0.17,59.2c6.87,0.09,13.75,0.18,20.62,0.27
			c0-19.82,0-39.65,0-59.47c7.42,0,14.84,0,22.26,0c0,22.38,0,44.76,0,67.15c7.01,4.74,14.03,9.47,21.04,14.21
			c0.02-27.12,0.03-54.24,0.05-81.35c11.84,0,23.69,0,35.53,0c0-1.59,0-3.18,0-4.77C154.94,69.2,95.18,69.2,35.42,69.19
			C35.42,70.79,35.42,72.39,35.42,73.98z"/>
	</g>
	<g>
		<path class="st1" d="M238.34,22.64c0-9.44-2.72-12.13-12.14-12.13c-33.64-0.01-67.29,0-100.93,0c-33.46,0-66.91-0.01-100.37,0
			c-10.21,0-12.67,2.47-12.68,12.73c-0.01,50.66,0.08,101.32-0.06,151.98c-0.04,13.45,2.97,26.05,10.57,37.01
			c6.21,8.96,12.99,17.74,20.74,25.36c19.71,19.37,42.61,34.2,66.92,46.83c3.91,2.03,7.85,4.01,11.82,5.94
			c1.81,0.88,4.9,0.72,6.69-0.25c3.33-1.82,6.68-3.62,10.02-5.44c10.61-5.75,21.19-11.55,31.35-18.02
			c19.85-12.63,38.07-27.33,52.37-46.36c10.54-14.04,15.99-29.52,15.85-47.39C238.1,122.83,238.36,72.74,238.34,22.64z
			 M137.17,240.38c-10.29-0.56-20.69-1.02-31.02-1.37c-2.35-6.75-4.71-13.5-7.06-20.25l16.07-24.22c7.18,0.22,14.36,0.44,21.53,0.66
			l12.34,28.04C145.07,228.95,141.12,234.67,137.17,240.38z M170.59,222.91c-5.88-0.68-11.76-1.36-17.64-2.04l-11.82-26.85
			c1.59-4.56,3.18-9.12,4.77-13.69l33.06,3.67c3.51,5.49,5.83,11.03,7.33,16.34L170.59,222.91z M147.44,175.93
			c0.07-0.22,0.15-0.43,0.22-0.65c-5.39-3.51-10.78-7.02-16.18-10.53v-9.44c23.69,1.99,38.67,17.39,43.88,23.71L147.44,175.93z
			 M126.94,164.28c-6.04,3.02-12.08,6.04-18.13,9.06l-24.12-2.13c1.33-1.19,2.75-2.36,4.26-3.49c4.34-3.25,18.26-12.78,37.99-12.61
			V164.28z M80.44,175.39l26.59,2.35c1.24,5.07,2.48,10.14,3.71,15.21l-15.17,22.87c-5.07,0.05-10.14,0.11-15.2,0.16l-11.64-22.45
			C71.04,188.16,74.69,181.63,80.44,175.39z M103.81,243.48c11.27,0.37,22.65,0.87,33.88,1.48c2.74,4.52,5.47,9.05,8.21,13.57
			l-15.91,13.65c-2.21,0.05-4.42,0.1-6.63,0.14l-28.99-22.3C97.51,247.85,100.66,245.66,103.81,243.48z M215.47,215.86
			c-10,13.26-22.01,24.59-35.71,33.74c-13.95,9.32-28.44,17.83-42.9,26.35c-0.56-0.74-1.13-1.48-1.69-2.22l13.11-11.25
			c0.09,0.16,0.19,0.31,0.28,0.47c8.18-5.63,16.35-11.25,24.53-16.88c-0.44-5.63-0.88-11.26-1.32-16.89l15.89-22.85
			c2.45,13.64-0.08,24.65-0.66,26.99c2.94-3,5.88-6,8.82-9c0.71-5.71,1.15-14.95-1.61-25.74c-1.58-6.18-5.83-19.29-17.41-31.04
			c-18.57-18.85-42.28-20.45-49.28-20.62c-4.75-0.12-16.11-0.27-29.09,5.27c-26.02,11.12-43.31,38.67-42.82,63.95
			c0.07,3.67,0.5,6.65,0.84,8.51c2.88,2.83,5.76,5.66,8.64,8.48c-1.31-5.87-2.94-16.82,0.29-29.77c0.26-1.03,0.64-2.44,1.18-4.12
			l9.87,19.04c-1.31,6.63-2.62,13.27-3.94,19.9c5.67,4.57,11.33,9.13,17,13.7l0.03,0.16l28.01,21.55c-0.9,1.14-1.8,2.29-2.7,3.43
			c-1.23-0.64-2.46-1.28-3.69-1.93c-23.72-12.59-46.14-27.19-64.97-46.73c-7.26-7.53-13.84-16.18-18.71-25.39
			c-3.83-7.24-6.28-16.1-6.37-24.28c-0.56-51.79-0.29-103.59-0.28-155.38c0-1.13,0.09-2.26,0.17-3.95c69.76,0,139.02,0,208.75,0
			c0,15.07,0,29.77,0,44.48c0,36.48-0.31,72.97,0.15,109.45C230.1,189.45,224.97,203.26,215.47,215.86z"/>
	</g>
</g>
</svg>
